<svg xmlns="http://www.w3.org/2000/svg" xmlns:xlink="http://www.w3.org/1999/xlink" version="1.1" width="70" height="70" viewBox="0 0 256 256" xml:space="preserve">
<desc>Created with Fabric.js 1.7.22</desc>
<defs>
</defs>
<g transform="translate(128 128) scale(0.72 0.72)" style="">
	<g style="stroke: none; stroke-width: 0; stroke-dasharray: none; stroke-linecap: butt; stroke-linejoin: miter; stroke-miterlimit: 10; fill: none; fill-rule: nonzero; opacity: 1;" transform="translate(-175.05 -175.05000000000004) scale(3.89 3.89)" >
	<path d="M 69.73 76.445 c -0.289 0 -0.579 -0.026 -0.868 -0.081 c -1.52 -0.287 -2.798 -1.304 -3.418 -2.721 L 54.313 48.187 c -0.169 -0.385 -0.491 -0.498 -0.668 -0.531 c -0.178 -0.036 -0.517 -0.046 -0.815 0.251 l -6.838 6.838 c -0.321 0.322 -0.439 0.793 -0.307 1.227 l 2.028 6.657 c 0.426 1.397 0.048 2.907 -0.985 3.94 l -2.658 2.658 c -0.907 0.908 -2.205 1.319 -3.471 1.096 c -1.265 -0.222 -2.346 -1.048 -2.892 -2.212 l -5.007 -10.678 l -10.89 -5.106 c -1.163 -0.546 -1.99 -1.626 -2.211 -2.892 c -0.222 -1.265 0.188 -2.562 1.097 -3.471 l 2.658 -2.657 c 1.032 -1.034 2.543 -1.41 3.941 -0.984 l 6.656 2.027 c 0.436 0.131 0.905 0.014 1.226 -0.306 l 6.894 -6.894 c 0.297 -0.297 0.285 -0.638 0.251 -0.815 c -0.033 -0.177 -0.146 -0.499 -0.531 -0.667 L 16.339 24.537 c -1.417 -0.62 -2.435 -1.897 -2.722 -3.417 s 0.194 -3.081 1.288 -4.174 l 2.577 -2.577 c 1.122 -1.123 2.719 -1.599 4.274 -1.268 l 34.395 7.27 c 1.397 0.294 2.832 -0.131 3.84 -1.138 l 16.89 -16.889 c 2.9 -2.902 7.524 -3.112 10.523 -0.477 c 1.603 1.407 2.522 3.352 2.592 5.476 c 0.067 2.094 -0.743 4.145 -2.225 5.626 l -17.02 17.02 c -1.009 1.01 -1.436 2.447 -1.14 3.843 l 7.27 34.394 c 0.328 1.554 -0.146 3.152 -1.27 4.275 l -2.576 2.576 C 72.151 75.961 70.958 76.445 69.73 76.445 z M 53.475 43.641 c 0.304 0 0.609 0.028 0.913 0.086 c 1.596 0.301 2.937 1.369 3.588 2.857 L 69.106 72.04 c 0.126 0.286 0.365 0.37 0.497 0.395 c 0.134 0.025 0.385 0.032 0.606 -0.187 l 2.576 -2.576 c 0.163 -0.164 0.232 -0.395 0.184 -0.621 L 65.7 34.656 c -0.576 -2.724 0.256 -5.527 2.226 -7.497 l 17.02 -17.02 c 0.713 -0.713 1.087 -1.661 1.055 -2.67 c -0.033 -1.007 -0.47 -1.931 -1.234 -2.601 c -1.418 -1.247 -3.641 -1.116 -5.057 0.3 l 0 0 l -16.89 16.889 c -1.967 1.968 -4.768 2.8 -7.495 2.223 l -34.394 -7.27 c -0.228 -0.046 -0.458 0.021 -0.62 0.184 l -2.577 2.577 c -0.22 0.221 -0.211 0.474 -0.186 0.606 c 0.024 0.132 0.109 0.371 0.395 0.496 l 25.454 11.132 c 1.489 0.651 2.557 1.993 2.858 3.589 c 0.302 1.596 -0.205 3.235 -1.353 4.383 l -6.893 6.893 c -1.368 1.369 -3.368 1.867 -5.219 1.304 l -6.657 -2.027 l -2.606 2.644 l 11.076 5.118 c 0.589 0.14 1.107 0.516 1.365 1.067 l 5.363 11.438 l 2.573 -2.673 l -2.041 -6.604 c -0.564 -1.851 -0.064 -3.851 1.304 -5.219 l 6.838 -6.838 C 50.934 44.15 52.185 43.641 53.475 43.641 z M 78.295 3.755 h 0.01 H 78.295 z" style="stroke: none; stroke-width: 1; stroke-dasharray: none; stroke-linecap: butt; stroke-linejoin: miter; stroke-miterlimit: 10; fill: rgb(0,0,0); fill-rule: nonzero; opacity: 1;" transform=" matrix(1 0 0 1 0 0) " stroke-linecap="round" />
	<path d="M 1.999 89.981 c -0.511 0 -1.023 -0.195 -1.413 -0.586 c -0.781 -0.781 -0.781 -2.046 0 -2.827 l 25.8 -25.8 c 0.78 -0.781 2.047 -0.781 2.827 0 c 0.781 0.781 0.781 2.046 0 2.827 l -25.8 25.8 C 3.023 89.786 2.511 89.981 1.999 89.981 z" style="stroke: none; stroke-width: 1; stroke-dasharray: none; stroke-linecap: butt; stroke-linejoin: miter; stroke-miterlimit: 10; fill: rgb(0,0,0); fill-rule: nonzero; opacity: 1;" transform=" matrix(1 0 0 1 0 0) " stroke-linecap="round" />
	<path d="M 20.16 82.933 c -0.511 0 -1.023 -0.195 -1.413 -0.586 c -0.781 -0.781 -0.781 -2.046 0 -2.827 l 11.642 -11.641 c 0.78 -0.781 2.046 -0.781 2.827 0 c 0.781 0.781 0.781 2.046 0 2.827 L 21.574 82.347 C 21.184 82.738 20.672 82.933 20.16 82.933 z" style="stroke: none; stroke-width: 1; stroke-dasharray: none; stroke-linecap: butt; stroke-linejoin: miter; stroke-miterlimit: 10; fill: rgb(0,0,0); fill-rule: nonzero; opacity: 1;" transform=" matrix(1 0 0 1 0 0) " stroke-linecap="round" />
	<path d="M 9.047 71.819 c -0.511 0 -1.023 -0.195 -1.413 -0.586 c -0.781 -0.781 -0.781 -2.046 0 -2.827 l 11.641 -11.641 c 0.78 -0.781 2.047 -0.781 2.827 0 c 0.781 0.781 0.781 2.046 0 2.827 L 10.46 71.233 C 10.07 71.624 9.558 71.819 9.047 71.819 z" style="stroke: none; stroke-width: 1; stroke-dasharray: none; stroke-linecap: butt; stroke-linejoin: miter; stroke-miterlimit: 10; fill: rgb(0,0,0); fill-rule: nonzero; opacity: 1;" transform=" matrix(1 0 0 1 0 0) " stroke-linecap="round" />
</g>
</g>
</svg>