<svg xmlns="http://www.w3.org/2000/svg" xmlns:xlink="http://www.w3.org/1999/xlink" version="1.1" width="70" height="70" viewBox="0 0 256 256" xml:space="preserve">
<desc>Created with Fabric.js 1.7.22</desc>
<defs>
</defs>
<g transform="translate(128 128) scale(0.72 0.72)" style="">
	<g style="stroke: none; stroke-width: 0; stroke-dasharray: none; stroke-linecap: butt; stroke-linejoin: miter; stroke-miterlimit: 10; fill: none; fill-rule: nonzero; opacity: 1;" transform="translate(-175.05 -175.05000000000004) scale(3.89 3.89)" >
	<path d="M 39.937 47.262 c -13.03 0 -23.631 -10.601 -23.631 -23.631 S 26.906 0 39.937 0 s 23.631 10.601 23.631 23.631 S 52.967 47.262 39.937 47.262 z M 39.937 2 c -11.927 0 -21.631 9.704 -21.631 21.631 s 9.704 21.631 21.631 21.631 c 11.928 0 21.631 -9.704 21.631 -21.631 S 51.864 2 39.937 2 z" style="stroke: none; stroke-width: 1; stroke-dasharray: none; stroke-linecap: butt; stroke-linejoin: miter; stroke-miterlimit: 10; fill: rgb(0,0,0); fill-rule: nonzero; opacity: 1;" transform=" matrix(1 0 0 1 0 0) " stroke-linecap="round" />
	<path d="M 46.502 90 H 7.382 c -0.552 0 -1 -0.447 -1 -1 V 78.815 c 0 -18.502 15.052 -33.554 33.554 -33.554 c 4.708 0 9.261 0.956 13.534 2.842 c 0.506 0.223 0.734 0.813 0.512 1.318 c -0.223 0.506 -0.813 0.735 -1.318 0.512 c -4.018 -1.773 -8.3 -2.672 -12.728 -2.672 c -17.399 0 -31.554 14.155 -31.554 31.554 V 88 h 38.12 c 0.553 0 1 0.447 1 1 S 47.055 90 46.502 90 z" style="stroke: none; stroke-width: 1; stroke-dasharray: none; stroke-linecap: butt; stroke-linejoin: miter; stroke-miterlimit: 10; fill: rgb(0,0,0); fill-rule: nonzero; opacity: 1;" transform=" matrix(1 0 0 1 0 0) " stroke-linecap="round" />
	<path d="M 79.826 90 H 57.663 c -2.091 0 -3.792 -1.701 -3.792 -3.792 v -17.95 c 0 -2.091 1.701 -3.792 3.792 -3.792 h 22.163 c 2.091 0 3.792 1.701 3.792 3.792 v 17.95 C 83.618 88.299 81.917 90 79.826 90 z M 57.663 66.466 c -0.988 0 -1.792 0.804 -1.792 1.792 v 17.95 c 0 0.988 0.804 1.792 1.792 1.792 h 22.163 c 0.988 0 1.792 -0.804 1.792 -1.792 v -17.95 c 0 -0.988 -0.804 -1.792 -1.792 -1.792 H 57.663 z" style="stroke: none; stroke-width: 1; stroke-dasharray: none; stroke-linecap: butt; stroke-linejoin: miter; stroke-miterlimit: 10; fill: rgb(0,0,0); fill-rule: nonzero; opacity: 1;" transform=" matrix(1 0 0 1 0 0) " stroke-linecap="round" />
	<path d="M 78.187 66.466 c -0.553 0 -1 -0.447 -1 -1 v -6.495 c 0 -4.228 -3.438 -7.666 -7.666 -7.666 h -1.553 c -4.227 0 -7.665 3.438 -7.665 7.666 v 6.495 c 0 0.553 -0.447 1 -1 1 s -1 -0.447 -1 -1 v -6.495 c 0 -5.33 4.336 -9.666 9.665 -9.666 h 1.553 c 5.33 0 9.666 4.336 9.666 9.666 v 6.495 C 79.187 66.019 78.739 66.466 78.187 66.466 z" style="stroke: none; stroke-width: 1; stroke-dasharray: none; stroke-linecap: butt; stroke-linejoin: miter; stroke-miterlimit: 10; fill: rgb(0,0,0); fill-rule: nonzero; opacity: 1;" transform=" matrix(1 0 0 1 0 0) " stroke-linecap="round" />
	<path d="M 68.744 79.085 c -0.553 0 -1 -0.447 -1 -1 V 76.19 c 0 -0.553 0.447 -1 1 -1 s 1 0.447 1 1 v 1.895 C 69.744 78.638 69.297 79.085 68.744 79.085 z" style="stroke: none; stroke-width: 1; stroke-dasharray: none; stroke-linecap: butt; stroke-linejoin: miter; stroke-miterlimit: 10; fill: rgb(0,0,0); fill-rule: nonzero; opacity: 1;" transform=" matrix(1 0 0 1 0 0) " stroke-linecap="round" />
</g>
</g>
</svg>